<?xml version="1.0" encoding="UTF-8" standalone="no"?>
<svg
   xmlns:dc="http://purl.org/dc/elements/1.1/"
   xmlns:cc="http://creativecommons.org/ns#"
   xmlns:rdf="http://www.w3.org/1999/02/22-rdf-syntax-ns#"
   xmlns:svg="http://www.w3.org/2000/svg"
   xmlns="http://www.w3.org/2000/svg"
   version="1.1"
   id="svg2"
   viewBox="0 0 625.81488 587.99536"
   height="165.94536mm"
   width="176.61887mm">
  <defs
     id="defs4" />
  <metadata
     id="metadata7">
    <rdf:RDF>
      <cc:Work
         rdf:about="">
        <dc:format>image/svg+xml</dc:format>
        <dc:type
           rdf:resource="http://purl.org/dc/dcmitype/StillImage" />
        <dc:title></dc:title>
      </cc:Work>
    </rdf:RDF>
  </metadata>
  <g
     transform="translate(-55.618615,-229.79542)"
     id="layer1">
    <path
       id="path4147"
       d="m 277.07143,815.85953 c -15.38488,-4.56006 -30.06254,-16.31793 -36.64578,-29.35595 -10.6865,-21.16447 -8.69383,-47.68892 4.81103,-64.03952 1.28411,-1.55469 2.33475,-3.24219 2.33475,-3.75 0,-0.5078 -3.9375,-0.93315 -8.75,-0.94523 -14.1421,-0.0355 -21.07076,-4.71739 -21.98491,-14.8558 -0.42571,-4.72144 0.0421,-6.21872 14.72344,-47.12224 2.2702,-6.325 4.76995,-13.3 5.555,-15.5 2.29586,-6.43385 2.23635,-6.5 -5.84775,-6.5 -6.32952,0 -7.90995,-0.38414 -11.84348,-2.87872 -5.67259,-3.59745 -8.58606,-8.23143 -9.90945,-15.76137 -0.56643,-3.22295 -2.09709,-11.48491 -3.40146,-18.35991 -1.30437,-6.875 -3.51494,-18.8 -4.91239,-26.5 -2.58484,-14.24259 -6.51068,-35.6055 -11.66934,-63.5 -1.57656,-8.525 -4.26122,-23.15 -5.96591,-32.5 -1.70469,-9.35 -3.96754,-21.725 -5.02857,-27.5 -1.06103,-5.775 -3.53825,-19.275 -5.50495,-30 -1.9667,-10.725 -4.67874,-25.46174 -6.02674,-32.74831 -9.72151,-52.54906 -13.37591,-72.58326 -14.04192,-76.98078 -0.35227,-2.326 -1.14699,-4.8818 -1.76603,-5.67956 -0.61905,-0.79776 -5.40054,-3.09417 -10.62554,-5.10314 -5.225,-2.00898 -15.575,-6.04581 -23,-8.97075 -7.425,-2.92495 -20.025004,-7.85656 -28.000004,-10.95916 -26.06183,-10.13909 -29.2272,-12.06836 -32.44695,-19.77619 -3.98322,-9.53554 0.15021,-20.00483 9.86455,-24.98526 6.59252,-3.37991 13.33094,-2.23381 33.082404,5.62681 20.21399,8.04469 39.27457,15.54463 58.75,23.11688 19.11628,7.43262 19.97619,7.84114 24.06863,11.43435 4.14375,3.63826 5.70409,7.90702 8.59905,23.5251 2.34626,12.65794 6.49663,35.28696 15.6815,85.50001 3.57147,19.525 8.52282,46.525 11.00301,60 8.5447,46.42382 11.48959,62.5248 12.986,71 0.82543,4.675 2.16368,11.78182 2.97388,15.79294 0.8102,4.01112 2.56901,13.46112 3.90847,21 1.33947,7.53888 3.39116,18.88206 4.55932,25.20706 1.16816,6.325 2.43927,13.3 2.8247,15.5 l 0.70076,4 158.66089,0.25307 158.66089,0.25308 2.52326,-8.25308 c 1.38779,-4.53919 4.28301,-13.65307 6.43382,-20.25307 2.15081,-6.6 6.70045,-20.775 10.11031,-31.5 9.34571,-29.39501 11.09909,-34.87218 13.60527,-42.5 1.26495,-3.85 6.11864,-18.925 10.78598,-33.5 4.66734,-14.575 12.09644,-37.75 16.5091,-51.5 9.64869,-30.06558 10.61878,-33.36971 9.98375,-34.00474 -0.27051,-0.27052 -16.88011,-1.16847 -36.91022,-1.99545 -20.0301,-0.82698 -45.86837,-1.9353 -57.41837,-2.46294 -11.55,-0.52763 -32.925,-1.44106 -47.5,-2.02984 -14.575,-0.58878 -40.9,-1.72742 -58.5,-2.5303 -17.6,-0.80288 -48.425,-2.12349 -68.5,-2.9347 -44.54219,-1.79989 -82.5778,-3.47241 -90.11341,-3.96252 -8.36952,-0.54434 -13.917,-3.40024 -17.70062,-9.11246 -6.65569,-10.04827 -3.09526,-23.428 7.6139,-28.61222 5.48503,-2.65525 4.01811,-2.64366 54.20013,-0.42839 18.975,0.83764 41.25,1.7734 49.5,2.07947 8.25,0.30606 23.775,0.99415 34.5,1.52907 10.725,0.53493 35.925,1.65371 56,2.48619 37.76233,1.56593 58.25207,2.45172 114.5,4.94991 18.15,0.80611 45.6,1.95346 61,2.54965 28.22552,1.09273 33.67637,1.77349 38.4096,4.79704 3.42527,2.18804 4.81577,3.88285 7.12329,8.68223 2.56235,5.32938 2.45294,9.79631 -0.45645,18.63623 -3.25505,9.89019 -17.56005,54.45502 -27.56167,85.86377 -4.46604,14.025 -8.94736,27.975 -9.95849,31 -1.01113,3.025 -4.77898,14.725 -8.37302,26 -10.05754,31.55198 -23.64152,73.88361 -25.67155,80 -1.004,3.025 -3.73694,11.575 -6.0732,19 -2.33626,7.425 -4.90454,14.85 -5.70729,16.5 -1.69091,3.47556 -5.84694,8.15749 -8.73122,9.83606 -1.48751,0.86568 -41.69927,1.29206 -156.92558,1.66394 l -154.92557,0.5 -1.77976,4.5 c -0.97886,2.475 -3.4112,9 -5.40518,14.5 -1.99399,5.5 -5.16409,14.17306 -7.04467,19.27347 -1.88058,5.10041 -3.41924,9.93791 -3.41924,10.75 0,1.29597 19.82299,1.47653 162.09887,1.47653 180.39977,0 166.08044,-0.56467 171.67471,6.76979 2.15618,2.8269 2.66692,4.58229 2.69355,9.25762 0.0279,4.89816 -0.43715,6.41861 -3.08,10.06972 -4.01225,5.54292 -7.49255,6.73265 -19.97046,6.82679 -5.54584,0.0418 -10.37129,0.36403 -10.72323,0.71598 -0.35195,0.35194 0.63926,2.26444 2.20268,4.25 9.46392,12.01928 13.79665,31.01893 10.62908,46.6101 -5.82633,28.67795 -29.91577,48.5 -58.94131,48.5 -16.86032,0 -30.22886,-5.56266 -42.25948,-17.58422 -11.5852,-11.57648 -17.52743,-25.829 -17.46603,-41.89256 0.05,-13.07198 4.31228,-26.32507 11.49495,-35.74203 1.45567,-1.90849 2.64667,-3.765 2.64667,-4.12558 0,-0.36059 -29.25,-0.65561 -65,-0.65561 -35.75,0 -65,0.27274 -65,0.6061 0,0.33335 1.29121,2.24585 2.86935,4.25 3.85453,4.89503 7.57912,12.45162 9.70337,19.68661 2.57039,8.7545 2.35803,24.98343 -0.43618,33.33304 -6.59087,19.69475 -21.4425,34.27981 -40.74435,40.01302 -9.10049,2.70311 -24.10259,2.7852 -32.89219,0.17997 z m 26.75301,-33.41709 c 6.44142,-2.8487 13.28767,-10.24053 14.85742,-16.0414 1.44195,-5.32861 0.65014,-16.23878 -1.47708,-20.35237 -2.13782,-4.1341 -7.75713,-9.75341 -11.89123,-11.89123 -4.11359,-2.12722 -15.02376,-2.91903 -20.35237,-1.47708 -5.5717,1.50773 -13.14943,8.3989 -16.02416,14.57233 -4.57332,9.82112 -2.32365,21.54388 5.68798,29.63929 7.82168,7.90348 19.05187,10.0382 29.19944,5.55046 z m 221,0 c 6.27221,-2.77387 12.86665,-9.76999 14.57097,-15.45849 1.60853,-5.36878 1.47593,-13.09168 -0.31178,-18.15858 -1.89604,-5.37396 -5.55467,-9.73994 -11.34178,-13.53458 -4.24282,-2.78204 -5.24076,-3 -13.73581,-3 -8.76615,0 -9.37416,0.14574 -14.12051,3.38463 -11.09569,7.57164 -14.97956,19.91626 -10.24628,32.56708 5.03269,13.45109 21.68357,20.171 35.18519,14.19994 z"
       style="fill:#020202" />
  </g>
</svg>
