<?xml version="1.0" encoding="UTF-8" standalone="no"?>
<svg
   xmlns:dc="http://purl.org/dc/elements/1.1/"
   xmlns:cc="http://creativecommons.org/ns#"
   xmlns:rdf="http://www.w3.org/1999/02/22-rdf-syntax-ns#"
   xmlns:svg="http://www.w3.org/2000/svg"
   xmlns="http://www.w3.org/2000/svg"
   version="1.1"
   id="svg2"
   viewBox="0 0 301.6504 301.31886"
   height="85.038879mm"
   width="85.132446mm">
  <defs
     id="defs4" />
  <metadata
     id="metadata7">
    <rdf:RDF>
      <cc:Work
         rdf:about="">
        <dc:format>image/svg+xml</dc:format>
        <dc:type
           rdf:resource="http://purl.org/dc/dcmitype/StillImage" />
        <dc:title></dc:title>
      </cc:Work>
    </rdf:RDF>
  </metadata>
  <g
     transform="translate(-234.24714,-364.54281)"
     id="layer1">
    <path
       id="path4160"
       d="m 240.55674,664.01559 c -1.7233,-1.05082 -3.8608,-2.94927 -4.75,-4.21877 -2.00234,-2.85875 -2.09139,-9.06935 -0.18155,-12.66283 0.78933,-1.48519 24.36751,-25.60187 52.39594,-53.59262 l 50.96078,-50.89228 -4.5534,-6.60772 C 309.63549,500.0627 309.12916,450.65771 333.1781,414.0332 c 15.14116,-23.05871 38.01564,-39.62194 64.67472,-46.83045 8.93898,-2.41706 11.48078,-2.65994 27.83721,-2.65994 16.41345,0 18.87935,0.23757 27.97652,2.69528 19.48288,5.26354 39.40534,17.18218 52.6046,31.47076 44.65249,48.33765 38.00643,123.85472 -14.37375,163.32437 -19.57472,14.74999 -41.19126,21.90043 -66.20737,21.90043 -23.19036,0 -41.77719,-5.51479 -61.09934,-18.12842 l -7.72327,-5.0418 -51.58869,51.5391 c -28.4053,28.37799 -52.85378,52.00917 -54.4038,52.58511 -4.08171,1.51664 -6.77397,1.2891 -10.31819,-0.87205 z M 446.19003,556.36665 c 7.81147,-1.99603 21.03162,-7.98698 27.6733,-12.54068 15.22539,-10.43887 26.80928,-26.22303 32.94619,-44.89232 2.59269,-7.88731 2.79692,-9.68934 2.8333,-25 0.039,-16.42808 0.0235,-16.54448 -3.55734,-26.70481 -9.7243,-27.59164 -29.47495,-46.46134 -57.44479,-54.88253 -7.7417,-2.33087 -10.7741,-2.70257 -22.45066,-2.75191 -15.68833,-0.0663 -22.90574,1.4295 -35.84352,7.42846 -19.1468,8.87794 -33.62199,23.42811 -42.26005,42.47893 -9.50216,20.95658 -9.30189,48.69915 0.50477,69.9244 11.36141,24.59027 34.828,42.97394 61.24313,47.97772 9.65267,1.82849 27.08718,1.33107 36.35567,-1.03726 z"
       style="fill:#202020" />
  </g>
</svg>
